<?xml version="1.0" encoding="UTF-8"?>
<svg id="Layer_1" data-name="Layer 1" xmlns="http://www.w3.org/2000/svg" xmlns:xlink="http://www.w3.org/1999/xlink" viewBox="80 448 870 102">
  <defs>
    <style>
      .cls-1 {
        fill: url(#linear-gradient);
      }

      .cls-2 {
        fill: #fff;
      }
    </style>
    <linearGradient id="linear-gradient" x1="495.4" y1="531.59" x2="567.33" y2="459.67" gradientUnits="userSpaceOnUse">
      <stop offset="0" stop-color="#fff"/>
      <stop offset=".13" stop-color="#fff" stop-opacity=".99"/>
      <stop offset=".26" stop-color="#fff" stop-opacity=".94"/>
      <stop offset=".38" stop-color="#fff" stop-opacity=".87"/>
      <stop offset=".5" stop-color="#fff" stop-opacity=".76"/>
      <stop offset=".61" stop-color="#fff" stop-opacity=".63"/>
      <stop offset=".72" stop-color="#fff" stop-opacity=".47"/>
      <stop offset=".84" stop-color="#fff" stop-opacity=".27"/>
      <stop offset=".95" stop-color="#fff" stop-opacity=".06"/>
      <stop offset=".97" stop-color="#fff" stop-opacity="0"/>
    </linearGradient>
  </defs>
  <path class="cls-1" d="M506.5,542.69c.96-4.93,7.17-34.4,33.61-48.38,9.17-4.85,18.02-6.38,24.48-6.8.36-10.37.73-20.74,1.09-31.1-8.3.9-18.62,3.45-28.52,9.98-34.91,23.05-30.92,73.58-30.66,76.3Z"/>
  <g>
    <path class="cls-2" d="M93.92,539.02v-65.13h31.92c10.14,0,18.14,2.88,24.01,8.65,5.86,5.77,8.75,13.68,8.75,23.82s-2.88,18.05-8.75,23.91c-5.86,5.86-13.86,8.75-24.01,8.75h-31.92ZM108.25,526.08h17.49c11.54,0,18.14-6.14,18.14-19.54s-6.61-19.73-18.14-19.73h-17.49v39.27Z"/>
    <path class="cls-2" d="M201.77,539.02v-65.13h54.25l.46,12.93h-40.48v12h32.57v12.93h-32.57v14.33h41.87l-.46,12.93h-55.64Z"/>
    <path class="cls-2" d="M298.45,533.9v-14.61h.09c9.21,4.93,20.28,8.1,29.22,8.1s13.31-2.7,13.31-6.89-3.72-5.86-18.61-8.37c-11.26-2.05-24.01-5.49-24.01-18.42,0-10.98,8.93-21.31,29.22-21.31,8.19,0,17.59,2.33,24.29,6.14v14.61h-.09c-7.44-4.75-17.03-7.63-25.31-7.63-9.3,0-13.12,2.79-13.12,6.79,0,5.49,8,6.14,18.24,7.91,11.26,2.05,24.38,5.3,24.38,19.35,0,7.72-4.19,20.94-28.38,20.94-12.28,0-21.77-2.88-29.22-6.61Z"/>
    <path class="cls-2" d="M390.94,539.02l25.4-65.13h22.05l25.31,65.13h-14.98l-5.86-15.45h-31.26l-5.96,15.45h-14.7ZM425.55,487.38l-9.12,23.63h21.59l-9.03-23.63h-3.44Z"/>
    <path class="cls-2" d="M608.4,539.02v-65.13h14.33v51.92h37.13l-.46,13.21h-50.99Z"/>
    <path class="cls-2" d="M701.36,539.02v-65.13h14.33v65.13h-14.33Z"/>
    <path class="cls-2" d="M762.77,539.02v-65.13h15.82l32.85,43.27h.37v-43.27h13.96v65.13h-14.79l-33.87-44.76h-.37v44.76h-13.96Z"/>
    <path class="cls-2" d="M872.67,539.02v-65.13h14.33v25.4h10.79l21.77-25.4h16.56v.09l-26.89,31.17,28.29,33.78v.09h-17.4l-22.89-26.89h-10.24v26.89h-14.33Z"/>
  </g>
</svg>